METRIC,LZ
M48
T1F00S00C0.600
T2F00S00C0.850
T3F00S00C0.950
T4F00S00C1.000
T5F00S00C1.300
T6F00S00C2.000
T7F00S00C3.500
%
T01
X0064699Y000175
X00675Y00075
X006105Y000855
X007335Y000965
X004155Y001
X00375
X003755Y00063
X00375Y00016
X00325Y000165
Y000625
Y001
X003Y0007908
X00425Y00025
X004875Y00017
X000745Y003005
Y0035
X00075Y00425
X00075Y00475
X0003Y00475
X000135Y00422
X00014Y00403
X00112Y00393
Y00448
X00125Y00475
X00175
X002255Y00475
X00225Y00432
X002225Y00389
X001595Y00386
X001605Y00432
X002Y00325
Y00275
X00118Y003085
X00347Y00312
X00375Y0025
X00425Y0025
X00475Y0025
X004195Y00184
X0043Y001205
X0035Y00175
X003155Y0025
X00325Y00425
Y00475
X00375
Y00425
X00363Y0041
X00375Y00375
X00425Y00375
X00475Y00375
X00503Y00409
X00275Y00475
X005175Y00442
X0056199Y004415
X005745Y00453
X00568Y004195
X0057499Y00375
X00623
X006365Y004
X006445Y00447
X0067Y004325
X00695
X00712Y004495
X007105Y00488
X007575Y00494
X007785Y00452
X007705Y00435
X00754Y00393
X00725Y00405
X0071799Y0031
X00711Y002795
X007Y002625
X006895Y002365
X0072683Y00235
X0075648Y0022251
X00776Y00198
X00771Y002625
X007835Y002805
X0078Y0035
X006895Y00325
X0068599Y003045
X0065699Y002685
X00625Y002505
X00575Y0025
X005745Y00313
X00513Y002895
X00525Y00375
X006575Y003585
X0067499Y00125
X00665Y00105
X00614
X00525Y00125
X00725
X00775
X00825Y00125
Y00175
X0077499Y00575
X00775Y00625
X00725
X006895Y00635
X006795Y00624
X00668Y00615
X006615Y00588
X006435Y006055
X00613Y0061
X00617Y00568
X00595Y005505
X00575Y005715
X00557Y005695
X00525Y00575
X00527Y00611
X005265Y00645
X005515Y006655
X00573Y007055
X00562Y00719
X005355Y007255
X005225Y007075
X005165Y00776
X005515Y00784
X005525Y008025
X00528Y008415
X0052835Y0089515
X005465Y008935
X00614Y008595
X0061493Y00822
X006435Y00802
X0066599Y008035
X00655Y00764
X00678Y007635
X007
X0068899Y007365
X0066699Y00737
X0061699Y007355
X0064Y00663
X00656Y00658
X00655Y006715
X00678Y006895
X007Y00676
X00725Y00675
X007285Y007185
X007175Y007285
X00744Y0070595
X0076249Y0075601
X007615Y00821
X007895Y0082
X007755Y0085888
X007305Y00806
X00675Y0065
X00626Y00647
X005735Y006005
X005255Y005245
X00708Y005495
X00725Y005745
X005Y00604
X00461Y00589
X00449Y00609
X00436Y005985
X00415Y00582
X00433Y00532
X0045Y005255
X003995Y00525
X00338Y005815
X00319Y005665
X002875Y00568
X002735Y005805
X002595Y005855
X0025Y00597
X00269Y00609
X0028Y00617
X00288Y006315
X002885Y006545
X00276Y00663
X002625Y006625
X00249Y00656
X00225Y00625
X00175
X00185Y00648
X001725Y0066
X00161Y006715
X0015Y006825
X00138Y007
X001155Y00721
X00138Y0075
X001785Y00773
X00171Y007875
X00163Y008025
X00164Y008195
X0015Y008135
X00143Y008355
X00127Y00836
X00157Y008725
X00168Y008855
X001815
X00203Y008845
X002065Y00865
X002195Y00876
X0025Y008505
X002845Y00843
X003425Y00824
X00381Y007975
X00425Y008025
X004245Y00782
X004125Y00743
X004165Y006995
X00386Y00719
X003435Y007505
X002645Y0075
X00207Y00734
X00211Y007715
X00197Y00691
X00187Y007005
X001385Y0065
X001255Y00584
X00225Y005745
Y00525
X00275
X003Y005505
X003225Y006255
X003705
X00402Y006545
X004815Y006505
X004865Y007075
X00484Y008125
X004615Y008195
X00413Y00834
X004215Y008475
X004055Y008655
X003795Y008575
X00342Y00889
X004855Y00893
X00329Y00672
X00303Y006805
X001005Y00675
X001Y00625
X00089Y00575
X00067Y0057
X00075Y005255
X00066Y00692
X000755Y00715
X001Y00725
X00097Y008335
X00078Y00861
X00066Y008505
X000495Y008345
X000195Y00874
X000995Y0089
X001Y009595
X00168Y009605
X002185
X002565Y00958
X00268Y00934
X002075Y00899
X001955Y009095
X001275Y008975
X004355Y00914
X004485Y00907
X004475Y00942
X004045Y00948
X00549Y009475
X005645Y009495
T02
X0027392Y0042211
X0027392Y0044711
X0049689Y0024392
X0052189
X0005589Y0052692
X0003089
T03
X0082396Y0065012
Y0080512
X0003896Y0080412
Y0077912
X0001396
Y0080412
X0001396Y0075312
X0001396Y0072812
X0003896
Y0075312
Y0070212
X0001396
Y0067712
Y0065212
X0003896
Y0067712
X0013Y0092
Y009454
X001554
Y0092
X001808
X001808Y009454
X002062
X002316
Y0092
T04
X0055993Y0015099
Y0020099
X0067793
Y0015099
X0038808Y0091509
X0033728
X0031188
X0028648
T05
X0053922Y0004104
X0057322
X0060722Y0004104
X0062422Y0006604
X0059022
X0055622
X0052222Y0006604
X0068308Y0003792
X0073308Y0003792
X0050522Y0004104
X0047122
X0045422Y0006604
X0048822Y0006604
X00398Y00038
X00348
X0027404Y0007908
X0014904
X0003699Y0012499
Y0017499
Y0022499
X00037Y00276
Y00326
Y00377
Y00427
X0025003Y0038766
X0025001Y0035516
X0030001
X0030003Y0038766
X0030001Y0029516
X0030083Y0026266
X0025003
X0025001Y0029516
X0027404Y0020408
X0028704Y0014108
X0036266Y0014917
X0039516Y0014999
Y0019999
X0036266Y0019997
X0045516Y0019999
X0048766Y0019997
Y0014997
X0045516Y0014999
Y0029999
X0048766Y0029997
Y0034997
X0045516Y0034999
X0039516
X0036266Y0034997
Y0029917
X0039516Y0029999
Y0044999
X0036266Y0044917
X0045516Y0044999
X0048766Y0044997
X0014904Y0020408
X0055003Y0026266
X0055001Y0029516
X0060001
X0060083Y0026266
X0060001Y0035516
X0060003Y0038766
X0055003
X0055001Y0035516
X0081204Y0034899
X0081204Y0039899
Y0044899
X0081204Y0029799
X0081204Y0024799
X0081204Y0019799
X0081208Y0050108
X0081208Y0055108
X0048766Y0049997
X0045516Y0049999
X0039516
X0036266Y0049997
T06
X0082896Y0060812
Y0084712
T07
X007995Y000495
X000505Y00049
X0005Y00925
X008
M30
