%FSLAX43Y43*%
%MOMM*%
G71*
G01*
G75*
%ADD10C,0.300*%
%ADD11R,1.800X1.600*%
%ADD12R,1.600X1.800*%
%ADD13R,4.000X3.000*%
%ADD14R,0.850X1.300*%
%ADD15R,1.300X0.850*%
%ADD16R,2.200X0.600*%
%ADD17R,2.200X0.600*%
%ADD18C,1.000*%
%ADD19C,0.400*%
%ADD20C,0.500*%
%ADD21C,0.800*%
%ADD22C,0.600*%
%ADD23C,2.000*%
%ADD24C,1.500*%
%ADD25R,1.400X1.400*%
%ADD26C,1.400*%
%ADD27C,5.000*%
%ADD28R,1.500X1.500*%
%ADD29C,1.500*%
%ADD30R,2.000X2.000*%
%ADD31C,1.100*%
%ADD32C,0.075*%
%ADD33R,1.600X2.100*%
%ADD34R,0.600X2.200*%
%ADD35R,0.600X2.200*%
%ADD36R,1.000X2.600*%
%ADD37R,10.200X7.300*%
%ADD38R,1.500X3.000*%
%ADD39R,12.200X9.300*%
%ADD40R,0.800X1.600*%
%ADD41R,1.600X2.800*%
%ADD42R,1.850X0.600*%
%ADD43R,1.700X2.200*%
%ADD44R,1.700X3.000*%
%ADD45R,1.700X2.800*%
%ADD46R,1.600X1.600*%
%ADD47C,1.500*%
%ADD48R,2.003X1.803*%
%ADD49R,1.803X2.003*%
%ADD50R,4.203X3.203*%
%ADD51R,1.053X1.503*%
%ADD52R,1.503X1.053*%
%ADD53R,2.403X0.803*%
%ADD54R,2.403X0.803*%
%ADD55C,2.203*%
%ADD56C,1.703*%
%ADD57R,1.603X1.603*%
%ADD58C,1.603*%
%ADD59C,5.203*%
%ADD60R,1.703X1.703*%
%ADD61C,1.703*%
%ADD62R,2.203X2.203*%
%ADD63C,1.303*%
D48*
X57507Y52188D02*
D03*
Y54988D02*
D03*
X35183Y25624D02*
D03*
X34883Y41024D02*
D03*
X33783Y52924D02*
D03*
X76011Y51200D02*
D03*
Y54000D02*
D03*
X72517Y36176D02*
D03*
Y38976D02*
D03*
X72483Y45024D02*
D03*
X72483Y42224D02*
D03*
X72667Y19126D02*
D03*
Y21926D02*
D03*
X72683Y27924D02*
D03*
X72683Y25124D02*
D03*
X33783Y50124D02*
D03*
X34883Y38224D02*
D03*
X24983Y52924D02*
D03*
X24983Y50124D02*
D03*
X35183Y22824D02*
D03*
X30907Y50088D02*
D03*
Y52888D02*
D03*
X32693Y16112D02*
D03*
X32693Y13312D02*
D03*
X61493Y85012D02*
D03*
X61493Y82212D02*
D03*
X52207Y46688D02*
D03*
Y49488D02*
D03*
X55107Y46688D02*
D03*
Y49488D02*
D03*
X70793Y54012D02*
D03*
X70793Y51212D02*
D03*
X70000Y19200D02*
D03*
Y16400D02*
D03*
X73407Y51188D02*
D03*
Y53988D02*
D03*
X64493Y31912D02*
D03*
X64493Y29112D02*
D03*
X63450Y13200D02*
D03*
Y16000D02*
D03*
X60343Y16012D02*
D03*
X60343Y13212D02*
D03*
X63443Y21612D02*
D03*
X63443Y18812D02*
D03*
X60343Y21612D02*
D03*
X60343Y18812D02*
D03*
D49*
X59688Y52193D02*
D03*
X62488Y52193D02*
D03*
X55724Y42017D02*
D03*
X75076Y40583D02*
D03*
X77876Y40583D02*
D03*
X77124Y47517D02*
D03*
X74324Y47517D02*
D03*
X75126Y23533D02*
D03*
X77926Y23533D02*
D03*
X77224Y30417D02*
D03*
X74424Y30417D02*
D03*
X52924Y42017D02*
D03*
X22395Y17091D02*
D03*
X25195D02*
D03*
X9688Y42093D02*
D03*
X12488D02*
D03*
X22488Y74993D02*
D03*
X25288Y74993D02*
D03*
X38312Y75106D02*
D03*
X35512D02*
D03*
X46788Y54993D02*
D03*
X49588Y54993D02*
D03*
X55012Y55007D02*
D03*
X52212Y55007D02*
D03*
X44012Y55007D02*
D03*
X41212Y55007D02*
D03*
X74388Y33693D02*
D03*
X77188Y33693D02*
D03*
X59388Y43293D02*
D03*
X62188Y43293D02*
D03*
X77338Y16643D02*
D03*
X74538Y16643D02*
D03*
D50*
X11694Y27591D02*
D03*
Y33941D02*
D03*
D51*
X76750Y35994D02*
D03*
X74850Y35994D02*
D03*
X75800Y38194D02*
D03*
X74950Y45206D02*
D03*
X76850Y45206D02*
D03*
X75900Y43006D02*
D03*
X76900Y18944D02*
D03*
X75000Y18944D02*
D03*
X75950Y21144D02*
D03*
X75050Y28106D02*
D03*
X76950Y28106D02*
D03*
X76000Y25906D02*
D03*
D52*
X31802Y21052D02*
D03*
X31802Y19152D02*
D03*
X29602Y20102D02*
D03*
D53*
X63300Y47465D02*
D03*
Y48735D02*
D03*
X63300Y50005D02*
D03*
X58100Y46195D02*
D03*
X58100Y47465D02*
D03*
Y48735D02*
D03*
X58100Y50005D02*
D03*
D54*
X63300Y46195D02*
D03*
D55*
X82896Y60812D02*
D03*
Y84712D02*
D03*
X68308Y3792D02*
D03*
X3700Y42700D02*
D03*
X81208Y50108D02*
D03*
X81204Y39899D02*
D03*
X81204Y34899D02*
D03*
X81204Y24799D02*
D03*
X81204Y19799D02*
D03*
X3700Y32600D02*
D03*
X34800Y3800D02*
D03*
X3699Y17499D02*
D03*
Y22499D02*
D03*
X27404Y20408D02*
D03*
X28704Y14108D02*
D03*
X14904Y20408D02*
D03*
Y7908D02*
D03*
X27404D02*
D03*
X39516Y29999D02*
D03*
X48766Y14997D02*
D03*
Y19997D02*
D03*
X30001Y29516D02*
D03*
X60003Y38766D02*
D03*
X55003D02*
D03*
X60001Y29516D02*
D03*
X55001Y35516D02*
D03*
X60001D02*
D03*
X60083Y26266D02*
D03*
X30003Y38766D02*
D03*
X25003D02*
D03*
X30083Y26266D02*
D03*
X30001Y35516D02*
D03*
X25001D02*
D03*
X39516Y14999D02*
D03*
X45516Y19999D02*
D03*
Y14999D02*
D03*
X36266Y14917D02*
D03*
X48766Y29997D02*
D03*
Y34997D02*
D03*
X36266Y29917D02*
D03*
X45516Y29999D02*
D03*
Y34999D02*
D03*
X39516Y44999D02*
D03*
X45516Y49999D02*
D03*
X45516Y44999D02*
D03*
X36266Y44917D02*
D03*
X48766Y49997D02*
D03*
Y44997D02*
D03*
X47122Y4104D02*
D03*
X48822Y6604D02*
D03*
X62422D02*
D03*
X50522Y4104D02*
D03*
X52222Y6604D02*
D03*
X53922Y4104D02*
D03*
X55622Y6604D02*
D03*
X57322Y4104D02*
D03*
X59022Y6604D02*
D03*
X60722Y4104D02*
D03*
D56*
X13000Y94540D02*
D03*
X15540Y92000D02*
D03*
Y94540D02*
D03*
X18080D02*
D03*
X20620D02*
D03*
X23160Y92000D02*
D03*
Y94540D02*
D03*
D57*
X52189Y24392D02*
D03*
X27392Y42211D02*
D03*
X5589Y52692D02*
D03*
D58*
X49689Y24392D02*
D03*
X27392Y44711D02*
D03*
X3089Y52692D02*
D03*
D59*
X5050Y4900D02*
D03*
X5000Y92500D02*
D03*
X80000D02*
D03*
X79950Y4950D02*
D03*
D60*
X67793Y15099D02*
D03*
X55993D02*
D03*
X38808Y91509D02*
D03*
X3896Y65212D02*
D03*
X13000Y92000D02*
D03*
D61*
X67793Y20099D02*
D03*
X55993D02*
D03*
X28648Y91509D02*
D03*
X31188D02*
D03*
X33728D02*
D03*
X1396Y65212D02*
D03*
X3896Y70212D02*
D03*
X1396D02*
D03*
Y67712D02*
D03*
X3896D02*
D03*
Y72812D02*
D03*
X1396D02*
D03*
X3896Y75312D02*
D03*
Y77912D02*
D03*
X1396D02*
D03*
X3896Y80412D02*
D03*
X1396D02*
D03*
X82396Y65012D02*
D03*
X18080Y92000D02*
D03*
X82396Y80512D02*
D03*
X1396Y75312D02*
D03*
D62*
X73308Y3792D02*
D03*
X3700Y37700D02*
D03*
X81208Y55108D02*
D03*
X81204Y44899D02*
D03*
X81204Y29799D02*
D03*
X3700Y27600D02*
D03*
X3699Y12499D02*
D03*
X39516Y34999D02*
D03*
X25001Y29516D02*
D03*
X55001D02*
D03*
X55003Y26266D02*
D03*
X25003D02*
D03*
X39516Y19999D02*
D03*
X36266Y19997D02*
D03*
Y34997D02*
D03*
X39516Y49999D02*
D03*
X36266Y49997D02*
D03*
X39800Y3800D02*
D03*
X45422Y6604D02*
D03*
D63*
X61400Y85950D02*
D03*
X70800Y54950D02*
D03*
X12550Y58400D02*
D03*
X64450Y44700D02*
D03*
X57450Y45300D02*
D03*
X71100Y27950D02*
D03*
X78350Y28050D02*
D03*
X78000Y35000D02*
D03*
X71200Y44950D02*
D03*
X77850Y45200D02*
D03*
X1400Y40300D02*
D03*
X6700Y57000D02*
D03*
X73050Y80600D02*
D03*
X71750Y72850D02*
D03*
X61493Y82200D02*
D03*
X34350Y75050D02*
D03*
X51650Y77600D02*
D03*
X75400Y39300D02*
D03*
X75648Y22251D02*
D03*
X77600Y19800D02*
D03*
X53550Y72550D02*
D03*
X55700Y56950D02*
D03*
X31900Y56650D02*
D03*
X66599Y80350D02*
D03*
X56450Y94950D02*
D03*
X26450Y75000D02*
D03*
X38100Y79750D02*
D03*
X66500Y10500D02*
D03*
X61400D02*
D03*
X43000Y12050D02*
D03*
X41950Y18400D02*
D03*
X11200Y39300D02*
D03*
Y44800D02*
D03*
X34700Y31200D02*
D03*
X59500Y55050D02*
D03*
X30300Y68050D02*
D03*
X30000Y55050D02*
D03*
X48400Y81250D02*
D03*
X48550Y89300D02*
D03*
X52835Y89515D02*
D03*
X52800Y84150D02*
D03*
X76249Y75601D02*
D03*
X77550Y85888D02*
D03*
X72850Y71850D02*
D03*
X76150Y82100D02*
D03*
X78950Y82000D02*
D03*
X74400Y70595D02*
D03*
X52650Y64500D02*
D03*
X52700Y61100D02*
D03*
X61300Y61000D02*
D03*
X68950Y32500D02*
D03*
X62600Y64700D02*
D03*
X67000Y43250D02*
D03*
X56800Y41950D02*
D03*
X48150Y65050D02*
D03*
X50300Y40900D02*
D03*
X36300Y41000D02*
D03*
X55150Y66550D02*
D03*
Y78400D02*
D03*
X42450Y78200D02*
D03*
X65600Y65800D02*
D03*
X66150Y58800D02*
D03*
X27350Y58050D02*
D03*
X40200Y65450D02*
D03*
X41500Y58200D02*
D03*
X33800Y58150D02*
D03*
X77050Y43500D02*
D03*
X77100Y26250D02*
D03*
X72683Y23500D02*
D03*
X72500Y40500D02*
D03*
X28850Y65450D02*
D03*
X28000Y61700D02*
D03*
X66800Y61500D02*
D03*
X70000Y26250D02*
D03*
X67950Y62400D02*
D03*
X69500Y43250D02*
D03*
X68950Y63500D02*
D03*
X38600Y71900D02*
D03*
X28450Y84300D02*
D03*
X20700Y73400D02*
D03*
X32900Y67200D02*
D03*
X73350Y9650D02*
D03*
X43300Y53200D02*
D03*
X41650Y69950D02*
D03*
X65500Y76400D02*
D03*
Y67150D02*
D03*
X70000Y76350D02*
D03*
Y67600D02*
D03*
X67800Y76350D02*
D03*
Y68950D02*
D03*
X40450Y94800D02*
D03*
X40550Y86550D02*
D03*
X18150Y88550D02*
D03*
X16800D02*
D03*
X20750Y89900D02*
D03*
X12750Y89750D02*
D03*
X12700Y83600D02*
D03*
X14300Y83550D02*
D03*
X11550Y72100D02*
D03*
X7800Y86100D02*
D03*
X7550Y71500D02*
D03*
X6600Y69200D02*
D03*
Y85050D02*
D03*
X17850Y77300D02*
D03*
X18500Y64800D02*
D03*
X17100Y78750D02*
D03*
X17250Y66000D02*
D03*
X16300Y80250D02*
D03*
X16100Y67150D02*
D03*
X15000Y81350D02*
D03*
Y68250D02*
D03*
X57300Y70550D02*
D03*
X25650Y95800D02*
D03*
X21950Y87600D02*
D03*
X56200Y71900D02*
D03*
X54900Y94750D02*
D03*
X26800Y93400D02*
D03*
X20650Y86500D02*
D03*
X43550Y91400D02*
D03*
X43600Y59850D02*
D03*
X25000Y59700D02*
D03*
X24900Y65600D02*
D03*
X44850Y90700D02*
D03*
X44900Y60900D02*
D03*
X46150Y81950D02*
D03*
X46100Y58900D02*
D03*
X25950Y58550D02*
D03*
X26250Y66250D02*
D03*
X27600Y66300D02*
D03*
X26900Y60900D02*
D03*
X44750Y94200D02*
D03*
X19550Y90950D02*
D03*
X18700Y70050D02*
D03*
X19700Y69100D02*
D03*
X20300Y88450D02*
D03*
X42150Y84750D02*
D03*
X42500Y80250D02*
D03*
X55250D02*
D03*
X54650Y89350D02*
D03*
X41300Y83400D02*
D03*
X64000Y66300D02*
D03*
X64350Y80200D02*
D03*
X1350Y42200D02*
D03*
X30000Y7908D02*
D03*
X41250Y74300D02*
D03*
X48650Y70750D02*
D03*
X52250D02*
D03*
X61699Y73550D02*
D03*
X57500Y57150D02*
D03*
X57350Y60050D02*
D03*
X82500Y12500D02*
D03*
X77500Y12500D02*
D03*
X72500D02*
D03*
X82500Y17500D02*
D03*
X67500Y7500D02*
D03*
X67499Y12500D02*
D03*
X64699Y1750D02*
D03*
X61050Y8550D02*
D03*
X52500Y12500D02*
D03*
X48750Y1700D02*
D03*
X42500Y2500D02*
D03*
X37500Y1600D02*
D03*
X37550Y6300D02*
D03*
X32500Y6250D02*
D03*
Y1650D02*
D03*
Y10000D02*
D03*
X37500Y10000D02*
D03*
X41550D02*
D03*
X35000Y17500D02*
D03*
X37500Y25000D02*
D03*
X42500Y25000D02*
D03*
X47500Y25000D02*
D03*
X31550D02*
D03*
X20000Y27500D02*
D03*
Y32500D02*
D03*
X22250Y38900D02*
D03*
X15950Y38600D02*
D03*
X16050Y43200D02*
D03*
X22500Y43200D02*
D03*
X22550Y47500D02*
D03*
X17500Y47500D02*
D03*
X12500D02*
D03*
X7500Y47500D02*
D03*
Y52550D02*
D03*
X8900Y57500D02*
D03*
X7500Y42500D02*
D03*
X7450Y35000D02*
D03*
X11800Y30850D02*
D03*
X7450Y30050D02*
D03*
X3000Y47500D02*
D03*
X27500D02*
D03*
X27500Y52500D02*
D03*
X32500Y47500D02*
D03*
Y42500D02*
D03*
X37500Y47500D02*
D03*
Y42500D02*
D03*
Y37500D02*
D03*
X42500Y37500D02*
D03*
X47500Y37500D02*
D03*
X52500D02*
D03*
X57499Y37500D02*
D03*
X62300D02*
D03*
X62500Y25050D02*
D03*
X57500Y25000D02*
D03*
X51300Y28950D02*
D03*
X57450Y31300D02*
D03*
X65699Y26850D02*
D03*
X68599Y30450D02*
D03*
X68950Y23650D02*
D03*
X71799Y31000D02*
D03*
X65750Y35850D02*
D03*
X63650Y40000D02*
D03*
X56199Y44150D02*
D03*
X51750Y44200D02*
D03*
X71050Y48800D02*
D03*
X75750Y49400D02*
D03*
X61700Y56800D02*
D03*
X64350Y60550D02*
D03*
X72500Y57450D02*
D03*
X77499Y57500D02*
D03*
X72500Y62500D02*
D03*
Y67500D02*
D03*
X77500Y62500D02*
D03*
X66699Y73700D02*
D03*
X68899Y73650D02*
D03*
X67500Y65000D02*
D03*
X52500Y57500D02*
D03*
X50000Y60400D02*
D03*
X52550Y52450D02*
D03*
X45000Y52550D02*
D03*
X39950Y52500D02*
D03*
X22500Y52500D02*
D03*
Y57450D02*
D03*
X28750Y56800D02*
D03*
X32250Y62550D02*
D03*
X37050D02*
D03*
X28800Y63150D02*
D03*
X22500Y62500D02*
D03*
X17500D02*
D03*
X10000D02*
D03*
X10050Y67500D02*
D03*
X10000Y72500D02*
D03*
X13800Y75000D02*
D03*
Y70000D02*
D03*
X13850Y65000D02*
D03*
X9700Y83350D02*
D03*
X4950Y83450D02*
D03*
X1950Y87400D02*
D03*
X9950Y89000D02*
D03*
X10000Y95950D02*
D03*
X16800Y96050D02*
D03*
X21850D02*
D03*
X15700Y87250D02*
D03*
X21100Y77150D02*
D03*
X16400Y81950D02*
D03*
X34250Y82400D02*
D03*
X37950Y85750D02*
D03*
X34200Y88900D02*
D03*
X25000Y85050D02*
D03*
M02*
